#Comment line ignore any data following # character 
#Hierarchical Translation and Rotation (.htr) file 
[Header]	
#Header keywords are followed by a single value 
FileType HTR		#Single word string
DataType HTRS		#Translation followed by rotation and scale data
FileVersion 1		#integer
NumSegments 84		#integer
NumFrames 2		#integer
DataFrameRate 30		#integer, data frame rate in this file
EulerRotationOrder ZYX
CalibrationUnits mm
RotationUnits Degrees
GlobalAxisofGravity Y
BoneLengthAxis Y
ScaleFactor 1.00
[SegmentNames&Hierarchy]
#CHILD	PARENT
MASTER GLOBAL
root MASTER
chest root
L_mid_tent01 root
R_mid_tent01 root
spine01 root
Bip01_Neck chest
L_humerus chest
R_humerus chest
weapon_bone chest
Bip01_Head Bip01_Neck
eye_left_bone Bip01_Head
eye_right_bone Bip01_Head
L_forearm L_humerus
L_front_hand L_forearm
L_weapon_bone L_forearm
L_front_hand01_01 L_front_hand
L_front_hand02_01 L_front_hand
L_front_hand03_01 L_front_hand
L_front_hand01_02 L_front_hand01_01
L_front_hand02_02 L_front_hand02_01
L_front_hand03_02 L_front_hand03_01
R_forearm R_humerus
R_front_hand R_forearm
R_weapon_bone R_forearm
R_front_hand01_01 R_front_hand
R_front_hand02_01 R_front_hand
R_front_hand03_01 R_front_hand
R_front_hand01_02 R_front_hand01_01
R_front_hand02_02 R_front_hand02_01
R_front_hand03_02 R_front_hand03_01
null_rope01_connect L_mid_tent01
Rope1_Seg01 null_rope01_connect
Rope1_Seg02 Rope1_Seg01
Rope1_Seg03 Rope1_Seg02
Rope1_Seg04 Rope1_Seg03
Rope1_Seg05 Rope1_Seg04
Rope1_Seg06 Rope1_Seg05
Rope1_Seg07 Rope1_Seg06
Rope1_Seg09 Rope1_Seg07
L_mid_hand01 Rope1_Seg09
L_mid_hand02 Rope1_Seg09
L_mid_hand03 Rope1_Seg09
null_rope02_connect R_mid_tent01
Rope2_Seg01 null_rope02_connect
Rope2_Seg02 Rope2_Seg01
Rope2_Seg03 Rope2_Seg02
Rope2_Seg04 Rope2_Seg03
Rope2_Seg05 Rope2_Seg04
Rope2_Seg06 Rope2_Seg05
Rope2_Seg07 Rope2_Seg06
Rope2_Seg09 Rope2_Seg07
R_mid_hand01 Rope2_Seg09
R_mid_hand02 Rope2_Seg09
R_mid_hand03 Rope2_Seg09
spine02 spine01
spine03 spine02
pelvis spine03
null_rope03_connect pelvis
null_rope04_connect pelvis
Rope3_Seg01 null_rope03_connect
Rope3_Seg02 Rope3_Seg01
Rope3_Seg03 Rope3_Seg02
Rope3_Seg04 Rope3_Seg03
Rope3_Seg05 Rope3_Seg04
Rope3_Seg06 Rope3_Seg05
Rope3_Seg07 Rope3_Seg06
Rope3_Seg08 Rope3_Seg07
Rope3_Seg09 Rope3_Seg08
R_rear_hand01 Rope3_Seg09
R_rear_hand02 Rope3_Seg09
R_rear_hand03 Rope3_Seg09
Rope4_Seg01 null_rope04_connect
Rope4_Seg02 Rope4_Seg01
Rope4_Seg03 Rope4_Seg02
Rope4_Seg04 Rope4_Seg03
Rope4_Seg05 Rope4_Seg04
Rope4_Seg06 Rope4_Seg05
Rope4_Seg07 Rope4_Seg06
Rope4_Seg08 Rope4_Seg07
Rope4_Seg09 Rope4_Seg08
L_rear_hand01 Rope4_Seg09
L_rear_hand02 Rope4_Seg09
L_rear_hand03 Rope4_Seg09
[BasePosition]
#SegmentName Tx, Ty, Tz, Rx, Ry, Rz, BoneLength
MASTER 0.000000 0.000000 0.000000 -90.000000 0.000000 0.000000 10.000000 
root 0.000000 0.000000 0.000000 0.000000 0.000000 0.000000 10.000000 
chest 0.000000 0.000000 0.000000 0.000000 0.000000 0.000000 10.000000 
L_mid_tent01 0.000000 0.000000 0.000000 0.000000 0.000000 0.000000 10.000000 
R_mid_tent01 0.000000 0.000000 0.000000 0.000000 0.000000 0.000000 10.000000 
spine01 0.000000 0.000000 0.000000 0.000000 0.000000 0.000000 10.000000 
Bip01_Neck 0.000000 0.000000 0.000000 0.000000 0.000000 0.000000 10.000000 
L_humerus 0.000000 0.000000 0.000000 0.000000 0.000000 0.000000 10.000000 
R_humerus 0.000000 0.000000 0.000000 0.000000 0.000000 0.000000 10.000000 
weapon_bone 0.000000 0.000000 0.000000 0.000000 0.000000 0.000000 10.000000 
Bip01_Head 0.000000 0.000000 0.000000 0.000000 0.000000 0.000000 10.000000 
eye_left_bone 0.000000 0.000000 0.000000 0.000000 0.000000 0.000000 10.000000 
eye_right_bone 0.000000 0.000000 0.000000 0.000000 0.000000 0.000000 10.000000 
L_forearm 0.000000 0.000000 0.000000 0.000000 0.000000 0.000000 10.000000 
L_front_hand 0.000000 0.000000 0.000000 0.000000 0.000000 0.000000 10.000000 
L_weapon_bone 0.000000 0.000000 0.000000 0.000000 0.000000 0.000000 10.000000 
L_front_hand01_01 0.000000 0.000000 0.000000 0.000000 0.000000 0.000000 10.000000 
L_front_hand02_01 0.000000 0.000000 0.000000 0.000000 0.000000 0.000000 10.000000 
L_front_hand03_01 0.000000 0.000000 0.000000 0.000000 0.000000 0.000000 10.000000 
L_front_hand01_02 0.000000 0.000000 0.000000 0.000000 0.000000 0.000000 10.000000 
L_front_hand02_02 0.000000 0.000000 0.000000 0.000000 0.000000 0.000000 10.000000 
L_front_hand03_02 0.000000 0.000000 0.000000 0.000000 0.000000 0.000000 10.000000 
R_forearm 0.000000 0.000000 0.000000 0.000000 0.000000 0.000000 10.000000 
R_front_hand 0.000000 0.000000 0.000000 0.000000 0.000000 0.000000 10.000000 
R_weapon_bone 0.000000 0.000000 0.000000 0.000000 0.000000 0.000000 10.000000 
R_front_hand01_01 0.000000 0.000000 0.000000 0.000000 0.000000 0.000000 10.000000 
R_front_hand02_01 0.000000 0.000000 0.000000 0.000000 0.000000 0.000000 10.000000 
R_front_hand03_01 0.000000 0.000000 0.000000 0.000000 0.000000 0.000000 10.000000 
R_front_hand01_02 0.000000 0.000000 0.000000 0.000000 0.000000 0.000000 10.000000 
R_front_hand02_02 0.000000 0.000000 0.000000 0.000000 0.000000 0.000000 10.000000 
R_front_hand03_02 0.000000 0.000000 0.000000 0.000000 0.000000 0.000000 10.000000 
null_rope01_connect 0.000000 0.000000 0.000000 0.000000 0.000000 0.000000 10.000000 
Rope1_Seg01 0.000000 0.000000 0.000000 0.000000 0.000000 0.000000 10.000000 
Rope1_Seg02 0.000000 0.000000 0.000000 0.000000 0.000000 0.000000 10.000000 
Rope1_Seg03 0.000000 0.000000 0.000000 0.000000 0.000000 0.000000 10.000000 
Rope1_Seg04 0.000000 0.000000 0.000000 0.000000 0.000000 0.000000 10.000000 
Rope1_Seg05 0.000000 0.000000 0.000000 0.000000 0.000000 0.000000 10.000000 
Rope1_Seg06 0.000000 0.000000 0.000000 0.000000 0.000000 0.000000 10.000000 
Rope1_Seg07 0.000000 0.000000 0.000000 0.000000 0.000000 0.000000 10.000000 
Rope1_Seg09 0.000000 0.000000 0.000000 0.000000 0.000000 0.000000 10.000000 
L_mid_hand01 0.000000 0.000000 0.000000 0.000000 0.000000 0.000000 10.000000 
L_mid_hand02 0.000000 0.000000 0.000000 0.000000 0.000000 0.000000 10.000000 
L_mid_hand03 0.000000 0.000000 0.000000 0.000000 0.000000 0.000000 10.000000 
null_rope02_connect 0.000000 0.000000 0.000000 0.000000 0.000000 0.000000 10.000000 
Rope2_Seg01 0.000000 0.000000 0.000000 0.000000 0.000000 0.000000 10.000000 
Rope2_Seg02 0.000000 0.000000 0.000000 0.000000 0.000000 0.000000 10.000000 
Rope2_Seg03 0.000000 0.000000 0.000000 0.000000 0.000000 0.000000 10.000000 
Rope2_Seg04 0.000000 0.000000 0.000000 0.000000 0.000000 0.000000 10.000000 
Rope2_Seg05 0.000000 0.000000 0.000000 0.000000 0.000000 0.000000 10.000000 
Rope2_Seg06 0.000000 0.000000 0.000000 0.000000 0.000000 0.000000 10.000000 
Rope2_Seg07 0.000000 0.000000 0.000000 0.000000 0.000000 0.000000 10.000000 
Rope2_Seg09 0.000000 0.000000 0.000000 0.000000 0.000000 0.000000 10.000000 
R_mid_hand01 0.000000 0.000000 0.000000 0.000000 0.000000 0.000000 10.000000 
R_mid_hand02 0.000000 0.000000 0.000000 0.000000 0.000000 0.000000 10.000000 
R_mid_hand03 0.000000 0.000000 0.000000 0.000000 0.000000 0.000000 10.000000 
spine02 0.000000 0.000000 0.000000 0.000000 0.000000 0.000000 10.000000 
spine03 0.000000 0.000000 0.000000 0.000000 0.000000 0.000000 10.000000 
pelvis 0.000000 0.000000 0.000000 0.000000 0.000000 0.000000 10.000000 
null_rope03_connect 0.000000 0.000000 0.000000 0.000000 0.000000 0.000000 10.000000 
null_rope04_connect 0.000000 0.000000 0.000000 0.000000 0.000000 0.000000 10.000000 
Rope3_Seg01 0.000000 0.000000 0.000000 0.000000 0.000000 0.000000 10.000000 
Rope3_Seg02 0.000000 0.000000 0.000000 0.000000 0.000000 0.000000 10.000000 
Rope3_Seg03 0.000000 0.000000 0.000000 0.000000 0.000000 0.000000 10.000000 
Rope3_Seg04 0.000000 0.000000 0.000000 0.000000 0.000000 0.000000 10.000000 
Rope3_Seg05 0.000000 0.000000 0.000000 0.000000 0.000000 0.000000 10.000000 
Rope3_Seg06 0.000000 0.000000 0.000000 0.000000 0.000000 0.000000 10.000000 
Rope3_Seg07 0.000000 0.000000 0.000000 0.000000 0.000000 0.000000 10.000000 
Rope3_Seg08 0.000000 0.000000 0.000000 0.000000 0.000000 0.000000 10.000000 
Rope3_Seg09 0.000000 0.000000 0.000000 0.000000 0.000000 0.000000 10.000000 
R_rear_hand01 0.000000 0.000000 0.000000 0.000000 0.000000 0.000000 10.000000 
R_rear_hand02 0.000000 0.000000 0.000000 0.000000 0.000000 0.000000 10.000000 
R_rear_hand03 0.000000 0.000000 0.000000 0.000000 0.000000 0.000000 10.000000 
Rope4_Seg01 0.000000 0.000000 0.000000 0.000000 0.000000 0.000000 10.000000 
Rope4_Seg02 0.000000 0.000000 0.000000 0.000000 0.000000 0.000000 10.000000 
Rope4_Seg03 0.000000 0.000000 0.000000 0.000000 0.000000 0.000000 10.000000 
Rope4_Seg04 0.000000 0.000000 0.000000 0.000000 0.000000 0.000000 10.000000 
Rope4_Seg05 0.000000 0.000000 0.000000 0.000000 0.000000 0.000000 10.000000 
Rope4_Seg06 0.000000 0.000000 0.000000 0.000000 0.000000 0.000000 10.000000 
Rope4_Seg07 0.000000 0.000000 0.000000 0.000000 0.000000 0.000000 10.000000 
Rope4_Seg08 0.000000 0.000000 0.000000 0.000000 0.000000 0.000000 10.000000 
Rope4_Seg09 0.000000 0.000000 0.000000 0.000000 0.000000 0.000000 10.000000 
L_rear_hand01 0.000000 0.000000 0.000000 0.000000 0.000000 0.000000 10.000000 
L_rear_hand02 0.000000 0.000000 0.000000 0.000000 0.000000 0.000000 10.000000 
L_rear_hand03 0.000000 0.000000 0.000000 0.000000 0.000000 0.000000 10.000000 
#Beginning of Data. Separated by tabs
#Fr	Tx	Ty	Tz	Rx	Ry	Rz	SF
[MASTER]
46 0.000000 0.000000 0.000000 0.001660 0.001660 0.001660 0.000000
47 0.000000 0.000000 0.000000 0.001660 0.001660 0.001660 0.000000
[root]
46 -23.115313 -62.822132 890.211914 -87.405876 -8.437917 -93.088295 892.725159
47 -23.994921 -62.822132 891.610657 -87.217010 -8.572245 -92.999825 894.143188
[chest]
46 -84.512650 -34.090519 0.000000 -0.307809 -0.743092 156.385437 91.129311
47 -84.512650 -34.090519 0.000000 -0.307809 -0.743092 156.385437 91.129311
[L_mid_tent01]
46 23.228750 24.509907 -223.761200 -15.018641 10.069905 -14.699244 226.294907
47 23.228750 24.509907 -223.761200 -14.710336 10.338996 -12.861384 226.294907
[R_mid_tent01]
46 23.228794 24.509907 226.238495 -157.184952 -5.404940 -14.092879 228.744751
47 23.228794 24.509907 226.238495 -158.260513 -4.746027 -14.276811 228.744751
[spine01]
46 -0.361383 -0.195265 0.000000 0.001815 0.001488 11.320962 0.410763
47 -0.361383 -0.195265 0.000000 0.001815 0.001488 11.320962 0.410763
[Bip01_Neck]
46 165.484543 71.581718 0.000119 175.896118 1.177290 24.871183 180.302734
47 165.484543 71.581718 0.000119 175.896118 1.177290 24.871183 180.302734
[L_humerus]
46 -13.983130 -135.272980 -120.471481 -104.702057 -2.574140 -132.238052 181.680161
47 -13.983130 -135.272980 -120.471481 -104.702057 -2.574140 -132.238052 181.680161
[R_humerus]
46 -13.983309 -135.273102 125.287651 84.935959 -3.633308 -127.041824 184.909012
47 -13.983309 -135.273102 125.287651 84.935959 -3.633308 -127.041824 184.909012
[weapon_bone]
46 235.964890 -300.705902 0.000000 0.000000 -89.951546 -128.212341 382.234833
47 235.964890 -300.705902 0.000000 0.000000 -89.951546 -128.212341 382.234833
[Bip01_Head]
46 201.313843 211.516800 15.929725 6.414935 7.096694 -64.505821 292.438690
47 201.313843 211.516800 15.929725 6.457993 7.574100 -64.438210 292.438690
[eye_left_bone]
46 -24.626970 125.451866 -64.772606 0.000000 -90.000000 -99.840431 143.318359
47 -24.626970 125.451866 -64.772606 0.000000 -90.000000 -99.840431 143.318359
[eye_right_bone]
46 -24.626970 125.451866 64.327362 0.000000 -89.965736 80.156380 143.117676
47 -24.626970 125.451866 64.327362 0.000000 -89.965736 80.156380 143.117676
[L_forearm]
46 322.776093 0.000000 -0.000119 0.000357 -0.002320 -107.505997 322.776093
47 322.776093 0.000000 -0.000119 0.000357 -0.002320 -107.506004 322.776093
[L_front_hand]
46 241.149185 -0.042021 -3.300071 -177.752777 -0.319468 -73.408745 241.171753
47 241.149185 -0.042021 -3.300071 -177.752777 -0.319468 -73.408745 241.171753
[L_weapon_bone]
46 156.183838 0.000000 0.000000 0.000014 0.000007 0.000001 156.183838
47 156.183838 0.000000 0.000000 0.000014 0.000007 0.000001 156.183838
[L_front_hand01_01]
46 86.095154 20.947098 -0.655860 0.139491 -0.584553 24.181786 88.609184
47 86.095154 20.947098 -0.655860 0.139491 -0.584553 24.181786 88.609184
[L_front_hand02_01]
46 86.935165 -11.437475 24.513514 119.190460 -21.905655 -12.119137 91.046425
47 86.935165 -11.437475 24.513514 119.190460 -21.905655 -12.119137 91.046425
[L_front_hand03_01]
46 86.637497 -14.123976 -20.424902 -120.437630 20.554037 -14.327168 90.126129
47 86.637497 -14.123976 -20.424902 -120.437630 20.554031 -14.327168 90.126129
[L_front_hand01_02]
46 71.020905 -0.000179 0.000030 0.000334 -0.002323 -106.379684 71.020905
47 71.020905 -0.000179 0.000030 0.000334 -0.002323 -106.379684 71.020905
[L_front_hand02_02]
46 71.020927 -0.000119 0.000060 0.000334 -0.002323 -106.379684 71.020927
47 71.020927 -0.000119 0.000060 0.000334 -0.002323 -106.379684 71.020927
[L_front_hand03_02]
46 71.020905 -0.000060 0.000060 0.000334 -0.002323 -106.379684 71.020905
47 71.020905 -0.000060 0.000060 0.000334 -0.002323 -106.379684 71.020905
[R_forearm]
46 322.776428 -0.000060 0.000030 0.213176 0.008105 -93.737396 322.776428
47 322.776428 -0.000060 0.000030 0.213176 0.008105 -93.737396 322.776428
[R_front_hand]
46 238.847015 -0.006795 2.210259 -1.721140 -0.139412 -83.351707 238.857239
47 238.847015 -0.006795 2.210259 -1.721140 -0.139412 -83.351715 238.857239
[R_weapon_bone]
46 155.664093 0.002503 -0.000030 0.003487 0.001180 -90.988930 155.664078
47 155.664093 0.002503 -0.000030 0.003487 0.001180 -90.988930 155.664078
[R_front_hand01_01]
46 87.624611 14.231146 22.918642 -119.218056 -22.033411 12.303375 91.683487
47 87.624611 14.231146 22.918642 -119.218056 -22.033409 12.303375 91.683487
[R_front_hand02_01]
46 89.356956 14.367283 -19.491137 120.545532 20.947184 14.823009 92.579636
47 89.356956 14.367283 -19.491137 120.545532 20.947184 14.823009 92.579636
[R_front_hand03_01]
46 87.286232 -22.307278 -0.143439 -0.231628 -0.392922 -24.567768 90.091743
47 87.286232 -22.307278 -0.143439 -0.231628 -0.392922 -24.567768 90.091743
[R_front_hand01_02]
46 71.020905 0.000060 0.000119 0.002323 -0.000334 106.381714 71.020905
47 71.020905 0.000060 0.000119 0.002323 -0.000334 106.381714 71.020905
[R_front_hand02_02]
46 71.020844 -0.000030 -0.000119 0.002323 -0.000334 106.381714 71.020836
47 71.020844 -0.000030 -0.000119 0.002323 -0.000334 106.381714 71.020836
[R_front_hand03_02]
46 71.020905 0.000000 0.000030 0.002323 -0.000334 106.381714 71.020905
47 71.020905 0.000000 0.000030 0.002323 -0.000334 106.381714 71.020905
[null_rope01_connect]
46 328.732483 0.000000 -0.000238 -113.146584 -70.818214 -135.560104 328.732483
47 328.732483 0.000000 -0.000238 -113.112953 -71.129623 -137.305984 328.732483
[Rope1_Seg01]
46 0.000000 0.000000 0.000000 67.465408 -31.049515 -137.942291 0.000000
47 0.000000 0.000000 0.000000 75.125458 -28.215658 -144.937439 0.000000
[Rope1_Seg02]
46 139.999863 -0.000179 0.000000 -9.703979 14.245531 9.314792 139.999863
47 139.999863 -0.000179 0.000000 -8.707471 12.651221 7.580751 139.999863
[Rope1_Seg03]
46 139.999924 0.000060 -0.000060 -11.108804 15.487845 20.585833 139.999924
47 139.999924 0.000060 -0.000060 -11.596927 15.577027 15.678483 139.999924
[Rope1_Seg04]
46 139.999924 -0.000060 -0.000119 -5.432144 7.735481 25.382444 139.999924
47 139.999924 -0.000060 -0.000119 -7.703146 9.369225 27.435804 139.999924
[Rope1_Seg05]
46 139.999832 0.000119 -0.000060 -2.199081 13.781280 -13.948917 139.999832
47 139.999832 0.000119 -0.000060 -3.558833 13.925879 -1.121056 139.999832
[Rope1_Seg06]
46 139.999954 0.000119 -0.000060 2.639167 13.016487 -22.090887 139.999954
47 139.999954 0.000119 -0.000060 -3.670580 14.501651 -12.418655 139.999954
[Rope1_Seg07]
46 139.999985 0.000060 0.000000 1.517577 4.382001 -6.368404 139.999985
47 139.999985 0.000060 0.000000 -2.908348 6.074658 -3.016547 139.999985
[Rope1_Seg09]
46 121.602913 0.000119 -0.000089 -89.793175 -1.359789 0.847147 121.602913
47 121.602913 0.000119 -0.000089 -89.793175 -1.359789 0.847147 121.602913
[L_mid_hand01]
46 103.859421 1.038730 8.195221 106.855484 -31.239275 -9.461397 104.187431
47 103.859421 1.038730 8.195221 106.855484 -31.239275 -9.461397 104.187431
[L_mid_hand02]
46 105.572853 -4.139662 -10.864139 -142.331345 25.752670 -28.774628 106.211075
47 105.572853 -4.139662 -10.864139 -142.331345 25.752670 -28.774628 106.211075
[L_mid_hand03]
46 104.641464 17.579376 -3.913581 -16.122810 9.734291 34.223598 106.179977
47 104.641464 17.579376 -3.913581 -16.122810 9.734291 34.223598 106.179977
[null_rope02_connect]
46 328.732849 0.000179 -0.000119 -153.041290 65.782478 -85.315399 328.732849
47 328.732849 0.000179 -0.000119 -154.003342 66.697334 -86.741241 328.732849
[Rope2_Seg01]
46 0.000124 0.000114 -0.000114 98.627739 -34.781525 -132.658035 0.000204
47 0.000123 0.000114 -0.000117 102.422592 -34.074333 -140.297562 0.000205
[Rope2_Seg02]
46 139.999741 -0.000060 -0.000119 -0.434768 20.090654 -2.973748 139.999756
47 139.999741 -0.000060 -0.000119 0.045922 17.993189 -3.421550 139.999756
[Rope2_Seg03]
46 140.000107 0.000030 0.000000 -3.509039 23.486261 -2.279485 140.000107
47 140.000107 0.000030 0.000000 -2.663036 25.050915 -4.847743 140.000107
[Rope2_Seg04]
46 139.999802 0.000000 -0.000060 -8.233007 19.785194 0.697575 139.999802
47 139.999802 0.000000 -0.000060 -8.627453 26.200125 -3.002406 139.999802
[Rope2_Seg05]
46 139.999985 -0.000060 0.000119 3.408026 2.078357 -4.064612 139.999985
47 139.999985 -0.000060 0.000119 -1.110630 5.724204 -1.841651 139.999985
[Rope2_Seg06]
46 139.999893 -0.000030 -0.000119 13.695326 -8.019200 -9.299002 139.999893
47 139.999893 -0.000030 -0.000119 8.201443 -5.663320 -4.064096 139.999893
[Rope2_Seg07]
46 139.999893 0.000060 -0.000060 6.932864 -5.231419 -5.182575 139.999893
47 139.999893 0.000060 -0.000060 4.429876 -3.374553 -2.446376 139.999893
[Rope2_Seg09]
46 121.338966 0.000089 -0.000060 33.793236 -1.359788 -0.847141 121.338966
47 121.338966 0.000089 -0.000060 33.793236 -1.359788 -0.847141 121.338966
[R_mid_hand01]
46 104.680779 11.144459 -10.335981 -41.523792 25.424656 28.595957 105.778534
47 104.680779 11.144459 -10.335981 -41.523792 25.424656 28.595957 105.778534
[R_mid_hand02]
46 104.070427 2.443552 8.231699 72.847389 -32.746803 10.013901 104.424065
47 104.070427 2.443552 8.231699 72.847389 -32.746803 10.013901 104.424065
[R_mid_hand03]
46 106.028137 -11.221827 -5.996406 -167.901306 10.259192 -37.009720 106.788818
47 106.028137 -11.221827 -5.996406 -167.901306 10.259192 -37.009720 106.788818
[spine02]
46 129.756927 0.001550 0.000119 0.001147 -1.797837 -7.854275 129.756927
47 129.756927 0.001550 0.000119 0.001147 -1.797837 -7.854275 129.756927
[spine03]
46 79.115631 0.000000 -0.000119 1.459971 -2.848092 23.765963 79.115631
47 79.115631 0.000000 -0.000119 1.459971 -2.848092 23.765963 79.115631
[pelvis]
46 169.435242 0.051022 0.000000 -0.000005 0.000003 -4.322055 169.435257
47 169.435242 0.051022 0.000000 -0.000005 0.000003 -4.322055 169.435257
[null_rope03_connect]
46 -1.257226 -2.466202 137.391083 16.738756 -85.061760 58.923088 137.418976
47 -1.257226 -2.466202 137.391083 17.505608 -84.850830 58.300945 137.418976
[null_rope04_connect]
46 -1.259640 -2.480268 -137.844437 16.738756 -85.061760 58.923088 137.872513
47 -1.259640 -2.480268 -137.844437 17.505608 -84.850830 58.300945 137.872513
[Rope3_Seg01]
46 0.000010 0.000010 -0.000038 -134.224609 -12.303148 -57.321648 0.000040
47 0.000010 0.000009 -0.000036 -133.662491 -15.958450 -67.405861 0.000038
[Rope3_Seg02]
46 139.999924 -0.000119 0.000060 0.432421 1.491637 3.816519 139.999924
47 139.999924 -0.000119 0.000060 0.674202 -1.293080 3.100579 139.999924
[Rope3_Seg03]
46 139.999924 -0.000119 0.000119 0.447710 1.962596 4.937517 139.999924
47 139.999924 -0.000119 0.000119 0.662928 -1.539683 3.821838 139.999924
[Rope3_Seg04]
46 139.999924 0.000119 0.000000 0.417875 2.449518 6.712457 139.999924
47 139.999924 0.000119 0.000000 0.593171 -2.583495 4.946741 139.999924
[Rope3_Seg05]
46 139.999924 -0.000238 0.000060 0.338488 0.547591 12.153065 139.999924
47 139.999924 -0.000238 0.000060 0.749686 -7.974150 7.505617 139.999924
[Rope3_Seg06]
46 139.999893 -0.000119 -0.000060 1.138846 7.050904 9.000419 139.999893
47 139.999893 -0.000119 -0.000060 0.595901 2.748399 6.178174 139.999893
[Rope3_Seg07]
46 139.999771 0.000060 -0.000119 4.795351 14.557029 -0.658032 139.999771
47 139.999771 0.000060 -0.000119 2.838050 18.346006 2.574920 139.999771
[Rope3_Seg08]
46 139.999985 -0.000060 0.000000 4.212536 9.218623 -0.587044 139.999985
47 139.999985 -0.000060 0.000000 3.616011 11.885151 1.895553 139.999985
[Rope3_Seg09]
46 90.185997 -0.000179 -0.000060 89.793228 -1.359877 -0.847183 90.185997
47 90.185997 -0.000179 -0.000060 89.793228 -1.359877 -0.847183 90.185997
[R_rear_hand01]
46 103.366196 -6.073594 -10.757982 -161.551193 16.666374 -30.088671 104.101845
47 103.366196 -6.073594 -10.757982 -161.551193 16.666374 -30.088671 104.101845
[R_rear_hand02]
46 100.509819 12.039542 -7.992327 -34.280552 19.289745 28.875523 101.543350
47 100.509819 12.039542 -7.992327 -34.280552 19.289745 28.875523 101.543350
[R_rear_hand03]
46 101.539970 5.215704 5.435467 83.366440 -30.933914 7.284830 101.819031
47 101.539970 5.215704 5.435467 83.366440 -30.933914 7.284830 101.819031
[Rope4_Seg01]
46 0.000010 0.000038 -0.000114 14.769048 -32.508465 -49.490177 0.000121
47 0.000010 0.000038 -0.000114 29.648312 -43.735550 -71.618454 0.000121
[Rope4_Seg02]
46 139.999985 0.000060 0.000119 8.280181 5.149429 -17.025047 139.999985
47 139.999985 0.000060 0.000119 2.254266 12.645149 -11.915025 139.999985
[Rope4_Seg03]
46 139.999924 0.000000 -0.000238 6.007705 2.574488 -16.311558 139.999924
47 139.999924 0.000000 -0.000238 3.549429 10.891036 -10.981132 139.999924
[Rope4_Seg04]
46 139.999985 0.000000 0.000119 4.240220 4.305490 -14.783462 139.999985
47 139.999985 0.000000 0.000119 5.031237 12.999164 -9.427223 139.999985
[Rope4_Seg05]
46 139.999802 -0.000060 -0.000119 1.497235 -1.136993 -6.897713 139.999802
47 139.999802 -0.000060 -0.000119 2.711961 2.349564 -5.244040 139.999802
[Rope4_Seg06]
46 139.999924 0.000000 0.000060 0.071820 -6.257441 -2.008355 139.999924
47 139.999924 0.000000 0.000060 0.070550 -6.322219 -2.682170 139.999924
[Rope4_Seg07]
46 139.999802 0.000000 0.000000 0.062029 -11.785665 0.860402 139.999802
47 139.999802 0.000000 0.000000 -0.702669 -15.707956 -1.698797 139.999802
[Rope4_Seg08]
46 139.999924 0.000000 0.000119 -0.979005 -7.568439 -0.835698 139.999924
47 139.999924 0.000000 0.000119 -1.188116 -9.732581 -2.528239 139.999924
[Rope4_Seg09]
46 90.185791 0.000060 0.000060 -135.617828 2.228885 0.850567 90.185791
47 90.185791 0.000060 0.000060 -135.617828 2.228885 0.850567 90.185791
[L_rear_hand01]
46 101.696655 -8.392275 -7.654577 -34.454281 -18.946800 151.655121 102.329041
47 101.696655 -8.392275 -7.654577 -34.454281 -18.946800 151.655121 102.329041
[L_rear_hand02]
46 102.726799 -1.568258 5.773216 83.407906 30.330435 172.796509 102.900848
47 102.726799 -1.568258 5.773216 83.407906 30.330435 172.796509 102.900848
[L_rear_hand03]
46 104.552910 9.721220 -10.420293 -161.379868 -16.473232 -150.512238 105.519653
47 104.552910 9.721220 -10.420293 -161.379868 -16.473232 -150.512238 105.519653
